<svg aria-roledescription="flowchart-v2" role="graphics-document document" viewBox="0 -50 3021.11328125 1316" style="max-width: 3021.11px; background-color: transparent;" class="flowchart" xmlns:xlink="http://www.w3.org/1999/xlink" xmlns="http://www.w3.org/2000/svg" width="100%" id="my-svg"><style>#my-svg{font-family:ui-monospace,Menlo,Consolas,monospace;font-size:16px;fill:#ccc;}@keyframes edge-animation-frame{from{stroke-dashoffset:0;}}@keyframes dash{to{stroke-dashoffset:0;}}#my-svg .edge-animation-slow{stroke-dasharray:9,5!important;stroke-dashoffset:900;animation:dash 50s linear infinite;stroke-linecap:round;}#my-svg .edge-animation-fast{stroke-dasharray:9,5!important;stroke-dashoffset:900;animation:dash 20s linear infinite;stroke-linecap:round;}#my-svg .error-icon{fill:#a44141;}#my-svg .error-text{fill:#ddd;stroke:#ddd;}#my-svg .edge-thickness-normal{stroke-width:1px;}#my-svg .edge-thickness-thick{stroke-width:3.5px;}#my-svg .edge-pattern-solid{stroke-dasharray:0;}#my-svg .edge-thickness-invisible{stroke-width:0;fill:none;}#my-svg .edge-pattern-dashed{stroke-dasharray:3;}#my-svg .edge-pattern-dotted{stroke-dasharray:2;}#my-svg .marker{fill:#8b949e;stroke:#8b949e;}#my-svg .marker.cross{stroke:#8b949e;}#my-svg svg{font-family:ui-monospace,Menlo,Consolas,monospace;font-size:16px;}#my-svg p{margin:0;}#my-svg .label{font-family:ui-monospace,Menlo,Consolas,monospace;color:#ccc;}#my-svg .cluster-label text{fill:#F9FFFE;}#my-svg .cluster-label span{color:#F9FFFE;}#my-svg .cluster-label span p{background-color:transparent;}#my-svg .label text,#my-svg span{fill:#ccc;color:#ccc;}#my-svg .node rect,#my-svg .node circle,#my-svg .node ellipse,#my-svg .node polygon,#my-svg .node path{fill:#1f2020;stroke:#ccc;stroke-width:1px;}#my-svg .rough-node .label text,#my-svg .node .label text,#my-svg .image-shape .label,#my-svg .icon-shape .label{text-anchor:middle;}#my-svg .node .katex path{fill:#000;stroke:#000;stroke-width:1px;}#my-svg .rough-node .label,#my-svg .node .label,#my-svg .image-shape .label,#my-svg .icon-shape .label{text-align:center;}#my-svg .node.clickable{cursor:pointer;}#my-svg .root .anchor path{fill:#8b949e!important;stroke-width:0;stroke:#8b949e;}#my-svg .arrowheadPath{fill:lightgrey;}#my-svg .edgePath .path{stroke:#8b949e;stroke-width:2.0px;}#my-svg .flowchart-link{stroke:#8b949e;fill:none;}#my-svg .edgeLabel{background-color:hsl(0, 0%, 34.4117647059%);text-align:center;}#my-svg .edgeLabel p{background-color:hsl(0, 0%, 34.4117647059%);}#my-svg .edgeLabel rect{opacity:0.5;background-color:hsl(0, 0%, 34.4117647059%);fill:hsl(0, 0%, 34.4117647059%);}#my-svg .labelBkg{background-color:rgba(87.75, 87.75, 87.75, 0.5);}#my-svg .cluster rect{fill:hsl(180, 1.5873015873%, 28.3529411765%);stroke:rgba(255, 255, 255, 0.25);stroke-width:1px;}#my-svg .cluster text{fill:#F9FFFE;}#my-svg .cluster span{color:#F9FFFE;}#my-svg div.mermaidTooltip{position:absolute;text-align:center;max-width:200px;padding:2px;font-family:ui-monospace,Menlo,Consolas,monospace;font-size:12px;background:#161b22;border:1px solid rgba(255, 255, 255, 0.25);border-radius:2px;pointer-events:none;z-index:100;}#my-svg .flowchartTitleText{text-anchor:middle;font-size:18px;fill:#ccc;}#my-svg rect.text{fill:none;stroke-width:0;}#my-svg .icon-shape,#my-svg .image-shape{background-color:hsl(0, 0%, 34.4117647059%);text-align:center;}#my-svg .icon-shape p,#my-svg .image-shape p{background-color:hsl(0, 0%, 34.4117647059%);padding:2px;}#my-svg .icon-shape rect,#my-svg .image-shape rect{opacity:0.5;background-color:hsl(0, 0%, 34.4117647059%);fill:hsl(0, 0%, 34.4117647059%);}#my-svg .label-icon{display:inline-block;height:1em;overflow:visible;vertical-align:-0.125em;}#my-svg .node .label-icon path{fill:currentColor;stroke:revert;stroke-width:revert;}#my-svg :root{--mermaid-font-family:"trebuchet ms",verdana,arial,sans-serif;}#my-svg .master&gt;*{fill:#1e3a5f!important;stroke:#58a6ff!important;color:#c9d1d9!important;}#my-svg .master span{fill:#1e3a5f!important;stroke:#58a6ff!important;color:#c9d1d9!important;}#my-svg .master tspan{fill:#c9d1d9!important;}#my-svg .ops&gt;*{fill:#3a1e5f!important;stroke:#bb86fc!important;color:#e9d8fd!important;}#my-svg .ops span{fill:#3a1e5f!important;stroke:#bb86fc!important;color:#e9d8fd!important;}#my-svg .ops tspan{fill:#e9d8fd!important;}#my-svg .alarm&gt;*{fill:#5f1e1e!important;stroke:#ff7b72!important;color:#ffd1cf!important;}#my-svg .alarm span{fill:#5f1e1e!important;stroke:#ff7b72!important;color:#ffd1cf!important;}#my-svg .alarm tspan{fill:#ffd1cf!important;}</style><g><marker orient="auto" markerHeight="8" markerWidth="8" markerUnits="userSpaceOnUse" refY="5" refX="5" viewBox="0 0 10 10" class="marker flowchart-v2" id="my-svg_flowchart-v2-pointEnd"><path style="stroke-width: 1; stroke-dasharray: 1, 0;" class="arrowMarkerPath" d="M 0 0 L 10 5 L 0 10 z"/></marker><marker orient="auto" markerHeight="8" markerWidth="8" markerUnits="userSpaceOnUse" refY="5" refX="4.5" viewBox="0 0 10 10" class="marker flowchart-v2" id="my-svg_flowchart-v2-pointStart"><path style="stroke-width: 1; stroke-dasharray: 1, 0;" class="arrowMarkerPath" d="M 0 5 L 10 10 L 10 0 z"/></marker><marker orient="auto" markerHeight="11" markerWidth="11" markerUnits="userSpaceOnUse" refY="5" refX="11" viewBox="0 0 10 10" class="marker flowchart-v2" id="my-svg_flowchart-v2-circleEnd"><circle style="stroke-width: 1; stroke-dasharray: 1, 0;" class="arrowMarkerPath" r="5" cy="5" cx="5"/></marker><marker orient="auto" markerHeight="11" markerWidth="11" markerUnits="userSpaceOnUse" refY="5" refX="-1" viewBox="0 0 10 10" class="marker flowchart-v2" id="my-svg_flowchart-v2-circleStart"><circle style="stroke-width: 1; stroke-dasharray: 1, 0;" class="arrowMarkerPath" r="5" cy="5" cx="5"/></marker><marker orient="auto" markerHeight="11" markerWidth="11" markerUnits="userSpaceOnUse" refY="5.2" refX="12" viewBox="0 0 11 11" class="marker cross flowchart-v2" id="my-svg_flowchart-v2-crossEnd"><path style="stroke-width: 2; stroke-dasharray: 1, 0;" class="arrowMarkerPath" d="M 1,1 l 9,9 M 10,1 l -9,9"/></marker><marker orient="auto" markerHeight="11" markerWidth="11" markerUnits="userSpaceOnUse" refY="5.2" refX="-1" viewBox="0 0 11 11" class="marker cross flowchart-v2" id="my-svg_flowchart-v2-crossStart"><path style="stroke-width: 2; stroke-dasharray: 1, 0;" class="arrowMarkerPath" d="M 1,1 l 9,9 M 10,1 l -9,9"/></marker><g class="root"><g class="clusters"><g data-look="classic" id="HMI" class="cluster"><rect height="208" width="682.58984375" y="1050" x="8" style=""/><g transform="translate(283.318359375, 1050)" class="cluster-label"><foreignObject height="24" width="131.953125"><div style="display: table-cell; white-space: nowrap; line-height: 1.5; max-width: 200px; text-align: center;" xmlns="http://www.w3.org/1999/xhtml"><span class="nodeLabel"><p>HMI / Dashboard</p></span></div></foreignObject></g></g><g data-look="classic" id="RPC" class="cluster"><rect height="128" width="1891.6796875" y="8" x="155.98828125" style=""/><g transform="translate(1001.828125, 8)" class="cluster-label"><foreignObject height="48" width="200"><div style="display: table; white-space: break-spaces; line-height: 1.5; max-width: 200px; text-align: center; width: 200px;" xmlns="http://www.w3.org/1999/xhtml"><span class="nodeLabel"><p>Blossom RPC · port 5550</p></span></div></foreignObject></g></g><g data-look="classic" id="Ops" class="cluster"><rect height="332" width="442.328125" y="8" x="2067.66796875" style=""/><g transform="translate(2227.25390625, 8)" class="cluster-label"><foreignObject height="24" width="123.15625"><div style="display: table-cell; white-space: nowrap; line-height: 1.5; max-width: 200px; text-align: center;" xmlns="http://www.w3.org/1999/xhtml"><span class="nodeLabel"><p>Operator Plane</p></span></div></foreignObject></g></g><g data-look="classic" id="Master" class="cluster"><rect height="586" width="2292.03515625" y="414" x="16.796875" style=""/><g transform="translate(1066.048828125, 414)" class="cluster-label"><foreignObject height="24" width="193.53125"><div style="display: table-cell; white-space: nowrap; line-height: 1.5; max-width: 200px; text-align: center;" xmlns="http://www.w3.org/1999/xhtml"><span class="nodeLabel"><p>SCADA Master · ISA-112</p></span></div></foreignObject></g></g><g data-look="classic" id="Field" class="cluster"><rect height="128" width="684.28125" y="567" x="2328.83203125" style=""/><g transform="translate(2622.58984375, 567)" class="cluster-label"><foreignObject height="24" width="96.765625"><div style="display: table-cell; white-space: nowrap; line-height: 1.5; max-width: 200px; text-align: center;" xmlns="http://www.w3.org/1999/xhtml"><span class="nodeLabel"><p>Field Layer</p></span></div></foreignObject></g></g></g><g class="edgePaths"><path marker-end="url(#my-svg_flowchart-v2-pointEnd)" style="" class="edge-thickness-normal edge-pattern-solid edge-thickness-normal edge-pattern-solid flowchart-link" id="L_D1_ING_0" d="M2899.73,670L2899.73,674.167C2899.73,678.333,2899.73,686.667,2678.065,695C2456.4,703.333,2013.069,711.667,1674.384,724.873C1335.699,738.08,1101.66,756.159,984.64,765.199L867.621,774.239"/><path marker-end="url(#my-svg_flowchart-v2-pointEnd)" style="" class="edge-thickness-normal edge-pattern-solid edge-thickness-normal edge-pattern-solid flowchart-link" id="L_D2_ING_0" d="M2692.965,670L2692.965,674.167C2692.965,678.333,2692.965,686.667,2502.427,695C2311.889,703.333,1930.814,711.667,1626.59,724.833C1322.366,737.999,1094.993,755.998,981.307,764.998L867.62,773.998"/><path marker-end="url(#my-svg_flowchart-v2-pointEnd)" style="" class="edge-thickness-normal edge-pattern-solid edge-thickness-normal edge-pattern-solid flowchart-link" id="L_D3_ING_0" d="M2464.207,670L2464.207,674.167C2464.207,678.333,2464.207,686.667,2300.348,695C2136.49,703.333,1808.772,711.667,1542.674,724.678C1276.576,737.69,1072.097,755.379,969.857,764.224L867.618,773.069"/><path marker-end="url(#my-svg_flowchart-v2-pointEnd)" style="" class="edge-thickness-normal edge-pattern-solid edge-thickness-normal edge-pattern-solid flowchart-link" id="L_ING_ALM_0" d="M741.266,823L741.266,827.167C741.266,831.333,741.266,839.667,731.856,847.744C722.447,855.822,703.628,863.643,694.219,867.554L684.809,871.465"/><path marker-end="url(#my-svg_flowchart-v2-pointEnd)" style="" class="edge-thickness-normal edge-pattern-solid edge-thickness-normal edge-pattern-solid flowchart-link" id="L_ING_SKPI_0" d="M618.898,797.196L540.378,805.663C461.857,814.13,304.815,831.065,226.294,847.033C147.773,863,147.773,878,147.773,885.5L147.773,893"/><path marker-end="url(#my-svg_flowchart-v2-pointEnd)" style="" class="edge-thickness-normal edge-pattern-solid edge-thickness-normal edge-pattern-solid flowchart-link" id="L_DISP_D1_0" d="M2003.871,497.606L2041.75,505.005C2079.629,512.404,2155.387,527.202,2193.266,538.768C2231.145,550.333,2231.145,558.667,2328.848,572.186C2426.552,585.705,2621.959,604.41,2719.662,613.763L2817.366,623.116"/><path marker-end="url(#my-svg_flowchart-v2-pointEnd)" style="" class="edge-thickness-normal edge-pattern-solid edge-thickness-normal edge-pattern-solid flowchart-link" id="L_DISP_D2_0" d="M1803.121,486.449L1693.134,495.708C1583.147,504.966,1363.173,523.483,1253.186,536.908C1143.199,550.333,1143.199,558.667,1387.764,572.933C1632.328,587.199,2121.457,607.399,2366.021,617.498L2610.585,627.598"/><path marker-end="url(#my-svg_flowchart-v2-pointEnd)" style="" class="edge-thickness-normal edge-pattern-solid edge-thickness-normal edge-pattern-solid flowchart-link" id="L_OP1_ROLE_0" d="M2387.816,111L2387.816,115.167C2387.816,119.333,2387.816,127.667,2387.816,136C2387.816,144.333,2387.816,152.667,2376.79,166.803C2365.764,180.939,2343.712,200.878,2332.686,210.848L2321.66,220.817"/><path marker-end="url(#my-svg_flowchart-v2-pointEnd)" style="" class="edge-thickness-normal edge-pattern-solid edge-thickness-normal edge-pattern-solid flowchart-link" id="L_OP2_ROLE_0" d="M2189.848,111L2189.848,115.167C2189.848,119.333,2189.848,127.667,2189.848,136C2189.848,144.333,2189.848,152.667,2200.874,166.803C2211.9,180.939,2233.952,200.878,2244.978,210.848L2256.004,220.817"/><path marker-end="url(#my-svg_flowchart-v2-pointEnd)" style="" class="edge-thickness-normal edge-pattern-dotted edge-thickness-normal edge-pattern-solid flowchart-link" id="L_ROLE_DISP_0" d="M2288.832,277.5L2288.832,287.917C2288.832,298.333,2288.832,319.167,2288.832,335.75C2288.832,352.333,2288.832,364.667,2288.832,377C2288.832,389.333,2288.832,401.667,2241.996,415.612C2195.16,429.558,2101.489,445.116,2054.653,452.895L2007.817,460.673"/><path marker-end="url(#my-svg_flowchart-v2-pointEnd)" style="" class="edge-thickness-normal edge-pattern-solid edge-thickness-normal edge-pattern-solid flowchart-link" id="L_M2_ING_0" d="M876.434,99L876.434,105.167C876.434,111.333,876.434,123.667,876.434,134C876.434,144.333,876.434,152.667,876.434,171.75C876.434,190.833,876.434,220.667,876.434,250.5C876.434,280.333,876.434,310.167,876.434,331.25C876.434,352.333,876.434,364.667,876.434,377C876.434,389.333,876.434,401.667,876.434,418.5C876.434,435.333,876.434,456.667,876.434,478C876.434,499.333,876.434,520.667,876.434,535.5C876.434,550.333,876.434,558.667,876.434,573.5C876.434,588.333,876.434,609.667,876.434,631C876.434,652.333,876.434,673.667,876.434,688.5C876.434,703.333,876.434,711.667,868.236,719.715C860.039,727.763,843.644,735.525,835.446,739.407L827.249,743.288"/><path marker-end="url(#my-svg_flowchart-v2-pointEnd)" style="" class="edge-thickness-normal edge-pattern-solid edge-thickness-normal edge-pattern-solid flowchart-link" id="L_M3_DISP_0" d="M1903.496,99L1903.496,105.167C1903.496,111.333,1903.496,123.667,1903.496,134C1903.496,144.333,1903.496,152.667,1903.496,171.75C1903.496,190.833,1903.496,220.667,1903.496,250.5C1903.496,280.333,1903.496,310.167,1903.496,331.25C1903.496,352.333,1903.496,364.667,1903.496,377C1903.496,389.333,1903.496,401.667,1903.496,411.333C1903.496,421,1903.496,428,1903.496,431.5L1903.496,435"/><path marker-end="url(#my-svg_flowchart-v2-pointEnd)" style="" class="edge-thickness-normal edge-pattern-solid edge-thickness-normal edge-pattern-solid flowchart-link" id="L_M4_ALM_0" d="M295.762,99L295.762,105.167C295.762,111.333,295.762,123.667,295.762,134C295.762,144.333,295.762,152.667,295.762,171.75C295.762,190.833,295.762,220.667,295.762,250.5C295.762,280.333,295.762,310.167,295.762,331.25C295.762,352.333,295.762,364.667,295.762,377C295.762,389.333,295.762,401.667,295.762,418.5C295.762,435.333,295.762,456.667,295.762,478C295.762,499.333,295.762,520.667,295.762,535.5C295.762,550.333,295.762,558.667,295.762,573.5C295.762,588.333,295.762,609.667,295.762,631C295.762,652.333,295.762,673.667,295.762,688.5C295.762,703.333,295.762,711.667,295.762,726.5C295.762,741.333,295.762,762.667,295.762,784C295.762,805.333,295.762,826.667,317.229,843.545C338.697,860.424,381.632,872.848,403.1,879.059L424.568,885.271"/><path marker-end="url(#my-svg_flowchart-v2-pointEnd)" style="" class="edge-thickness-normal edge-pattern-solid edge-thickness-normal edge-pattern-solid flowchart-link" id="L_ALM_SVG_0" d="M428.41,969.246L413.683,974.371C398.956,979.497,369.501,989.749,354.774,999.041C340.047,1008.333,340.047,1016.667,340.047,1025C340.047,1033.333,340.047,1041.667,325.987,1049.818C311.926,1057.97,283.806,1065.94,269.746,1069.924L255.685,1073.909"/><path marker-end="url(#my-svg_flowchart-v2-pointEnd)" style="" class="edge-thickness-normal edge-pattern-solid edge-thickness-normal edge-pattern-solid flowchart-link" id="L_SKPI_SVG_0" d="M147.773,951L147.773,959.167C147.773,967.333,147.773,983.667,147.773,996C147.773,1008.333,147.773,1016.667,147.773,1025C147.773,1033.333,147.773,1041.667,148.367,1049.343C148.961,1057.019,150.148,1064.037,150.742,1067.547L151.336,1071.056"/><path marker-end="url(#my-svg_flowchart-v2-pointEnd)" style="" class="edge-thickness-normal edge-pattern-solid edge-thickness-normal edge-pattern-solid flowchart-link" id="L_SVG_WALL_0" d="M156.57,1129L156.57,1133.167C156.57,1137.333,156.57,1145.667,156.57,1153.333C156.57,1161,156.57,1168,156.57,1171.5L156.57,1175"/><path marker-end="url(#my-svg_flowchart-v2-pointEnd)" style="" class="edge-thickness-normal edge-pattern-solid edge-thickness-normal edge-pattern-solid flowchart-link" id="L_ALM_GH_0" d="M565.121,975L565.669,979.167C566.217,983.333,567.314,991.667,567.862,1000C568.41,1008.333,568.41,1016.667,568.41,1025C568.41,1033.333,568.41,1041.667,568.41,1049.333C568.41,1057,568.41,1064,568.41,1067.5L568.41,1071"/><path marker-end="url(#my-svg_flowchart-v2-pointEnd)" style="" class="edge-thickness-normal edge-pattern-solid edge-thickness-normal edge-pattern-solid flowchart-link" id="L_M1_Master_0" d="M586.098,99L586.098,105.167C586.098,111.333,586.098,123.667,586.098,134C586.098,144.333,586.098,152.667,586.098,171.75C586.098,190.833,586.098,220.667,586.098,250.5C586.098,280.333,586.098,310.167,586.098,331.25C586.098,352.333,586.098,364.667,586.098,376.333C586.098,388,586.098,399,586.098,404.5L586.098,410"/><path marker-end="url(#my-svg_flowchart-v2-pointEnd)" style="" class="edge-thickness-normal edge-pattern-solid edge-thickness-normal edge-pattern-solid flowchart-link" id="L_M5_Modes_0" d="M1389.965,99L1389.965,105.167C1389.965,111.333,1389.965,123.667,1389.965,134C1389.965,144.333,1389.965,152.667,1389.965,160.333C1389.965,168,1389.965,175,1389.965,178.5L1389.965,182"/><path marker-end="url(#my-svg_flowchart-v2-pointEnd)" style="" class="edge-thickness-normal edge-pattern-dotted edge-thickness-normal edge-pattern-solid flowchart-link" id="L_Modes_DISP_0" d="M1389.965,315L1389.965,319.167C1389.965,323.333,1389.965,331.667,1389.965,342C1389.965,352.333,1389.965,364.667,1389.965,377C1389.965,389.333,1389.965,401.667,1458.163,416.333C1526.36,430.999,1662.756,447.997,1730.954,456.497L1799.152,464.996"/></g><g class="edgeLabels"><g class="edgeLabel"><g transform="translate(0, 0)" class="label"><foreignObject height="0" width="0"><div style="display: table-cell; white-space: nowrap; line-height: 1.5; max-width: 200px; text-align: center;" class="labelBkg" xmlns="http://www.w3.org/1999/xhtml"><span class="edgeLabel"></span></div></foreignObject></g></g><g class="edgeLabel"><g transform="translate(0, 0)" class="label"><foreignObject height="0" width="0"><div style="display: table-cell; white-space: nowrap; line-height: 1.5; max-width: 200px; text-align: center;" class="labelBkg" xmlns="http://www.w3.org/1999/xhtml"><span class="edgeLabel"></span></div></foreignObject></g></g><g class="edgeLabel"><g transform="translate(0, 0)" class="label"><foreignObject height="0" width="0"><div style="display: table-cell; white-space: nowrap; line-height: 1.5; max-width: 200px; text-align: center;" class="labelBkg" xmlns="http://www.w3.org/1999/xhtml"><span class="edgeLabel"></span></div></foreignObject></g></g><g class="edgeLabel"><g transform="translate(0, 0)" class="label"><foreignObject height="0" width="0"><div style="display: table-cell; white-space: nowrap; line-height: 1.5; max-width: 200px; text-align: center;" class="labelBkg" xmlns="http://www.w3.org/1999/xhtml"><span class="edgeLabel"></span></div></foreignObject></g></g><g class="edgeLabel"><g transform="translate(0, 0)" class="label"><foreignObject height="0" width="0"><div style="display: table-cell; white-space: nowrap; line-height: 1.5; max-width: 200px; text-align: center;" class="labelBkg" xmlns="http://www.w3.org/1999/xhtml"><span class="edgeLabel"></span></div></foreignObject></g></g><g class="edgeLabel"><g transform="translate(0, 0)" class="label"><foreignObject height="0" width="0"><div style="display: table-cell; white-space: nowrap; line-height: 1.5; max-width: 200px; text-align: center;" class="labelBkg" xmlns="http://www.w3.org/1999/xhtml"><span class="edgeLabel"></span></div></foreignObject></g></g><g class="edgeLabel"><g transform="translate(0, 0)" class="label"><foreignObject height="0" width="0"><div style="display: table-cell; white-space: nowrap; line-height: 1.5; max-width: 200px; text-align: center;" class="labelBkg" xmlns="http://www.w3.org/1999/xhtml"><span class="edgeLabel"></span></div></foreignObject></g></g><g class="edgeLabel"><g transform="translate(0, 0)" class="label"><foreignObject height="0" width="0"><div style="display: table-cell; white-space: nowrap; line-height: 1.5; max-width: 200px; text-align: center;" class="labelBkg" xmlns="http://www.w3.org/1999/xhtml"><span class="edgeLabel"></span></div></foreignObject></g></g><g class="edgeLabel"><g transform="translate(0, 0)" class="label"><foreignObject height="0" width="0"><div style="display: table-cell; white-space: nowrap; line-height: 1.5; max-width: 200px; text-align: center;" class="labelBkg" xmlns="http://www.w3.org/1999/xhtml"><span class="edgeLabel"></span></div></foreignObject></g></g><g transform="translate(2288.83203125, 377)" class="edgeLabel"><g transform="translate(-43.984375, -12)" class="label"><foreignObject height="24" width="87.96875"><div style="display: table-cell; white-space: nowrap; line-height: 1.5; max-width: 200px; text-align: center;" class="labelBkg" xmlns="http://www.w3.org/1999/xhtml"><span class="edgeLabel"><p>kappa gate</p></span></div></foreignObject></g></g><g class="edgeLabel"><g transform="translate(0, 0)" class="label"><foreignObject height="0" width="0"><div style="display: table-cell; white-space: nowrap; line-height: 1.5; max-width: 200px; text-align: center;" class="labelBkg" xmlns="http://www.w3.org/1999/xhtml"><span class="edgeLabel"></span></div></foreignObject></g></g><g class="edgeLabel"><g transform="translate(0, 0)" class="label"><foreignObject height="0" width="0"><div style="display: table-cell; white-space: nowrap; line-height: 1.5; max-width: 200px; text-align: center;" class="labelBkg" xmlns="http://www.w3.org/1999/xhtml"><span class="edgeLabel"></span></div></foreignObject></g></g><g class="edgeLabel"><g transform="translate(0, 0)" class="label"><foreignObject height="0" width="0"><div style="display: table-cell; white-space: nowrap; line-height: 1.5; max-width: 200px; text-align: center;" class="labelBkg" xmlns="http://www.w3.org/1999/xhtml"><span class="edgeLabel"></span></div></foreignObject></g></g><g class="edgeLabel"><g transform="translate(0, 0)" class="label"><foreignObject height="0" width="0"><div style="display: table-cell; white-space: nowrap; line-height: 1.5; max-width: 200px; text-align: center;" class="labelBkg" xmlns="http://www.w3.org/1999/xhtml"><span class="edgeLabel"></span></div></foreignObject></g></g><g class="edgeLabel"><g transform="translate(0, 0)" class="label"><foreignObject height="0" width="0"><div style="display: table-cell; white-space: nowrap; line-height: 1.5; max-width: 200px; text-align: center;" class="labelBkg" xmlns="http://www.w3.org/1999/xhtml"><span class="edgeLabel"></span></div></foreignObject></g></g><g class="edgeLabel"><g transform="translate(0, 0)" class="label"><foreignObject height="0" width="0"><div style="display: table-cell; white-space: nowrap; line-height: 1.5; max-width: 200px; text-align: center;" class="labelBkg" xmlns="http://www.w3.org/1999/xhtml"><span class="edgeLabel"></span></div></foreignObject></g></g><g class="edgeLabel"><g transform="translate(0, 0)" class="label"><foreignObject height="0" width="0"><div style="display: table-cell; white-space: nowrap; line-height: 1.5; max-width: 200px; text-align: center;" class="labelBkg" xmlns="http://www.w3.org/1999/xhtml"><span class="edgeLabel"></span></div></foreignObject></g></g><g class="edgeLabel"><g transform="translate(0, 0)" class="label"><foreignObject height="0" width="0"><div style="display: table-cell; white-space: nowrap; line-height: 1.5; max-width: 200px; text-align: center;" class="labelBkg" xmlns="http://www.w3.org/1999/xhtml"><span class="edgeLabel"></span></div></foreignObject></g></g><g class="edgeLabel"><g transform="translate(0, 0)" class="label"><foreignObject height="0" width="0"><div style="display: table-cell; white-space: nowrap; line-height: 1.5; max-width: 200px; text-align: center;" class="labelBkg" xmlns="http://www.w3.org/1999/xhtml"><span class="edgeLabel"></span></div></foreignObject></g></g><g transform="translate(1389.96484375, 377)" class="edgeLabel"><g transform="translate(-26.390625, -12)" class="label"><foreignObject height="24" width="52.78125"><div style="display: table-cell; white-space: nowrap; line-height: 1.5; max-width: 200px; text-align: center;" class="labelBkg" xmlns="http://www.w3.org/1999/xhtml"><span class="edgeLabel"><p>policy</p></span></div></foreignObject></g></g></g><g class="nodes"><g transform="translate(903.43359375, 178)" class="root"><g class="clusters"><g data-look="classic" id="Modes" class="cluster"><rect height="129" width="957.0625" y="8" x="8" style=""/><g transform="translate(424.953125, 8)" class="cluster-label"><foreignObject height="24" width="123.15625"><div style="display: table-cell; white-space: nowrap; line-height: 1.5; max-width: 200px; text-align: center;" xmlns="http://www.w3.org/1999/xhtml"><span class="nodeLabel"><p>Dispatch Modes</p></span></div></foreignObject></g></g></g><g class="edgePaths"/><g class="edgeLabels"/><g class="nodes"><g transform="translate(99.390625, 72.5)" id="flowchart-N-15" class="node default"><rect height="54" width="112.78125" y="-27" x="-56.390625" style="" class="basic label-container"/><g transform="translate(-26.390625, -12)" style="" class="label"><rect/><foreignObject height="24" width="52.78125"><div style="display: table-cell; white-space: nowrap; line-height: 1.5; max-width: 200px; text-align: center;" xmlns="http://www.w3.org/1999/xhtml"><span class="nodeLabel"><p>NORMAL</p></span></div></foreignObject></g></g><g transform="translate(284.1640625, 72.5)" id="flowchart-L-16" class="node default"><rect height="54" width="156.765625" y="-27" x="-78.3828125" style="" class="basic label-container"/><g transform="translate(-48.3828125, -12)" style="" class="label"><rect/><foreignObject height="24" width="96.765625"><div style="display: table-cell; white-space: nowrap; line-height: 1.5; max-width: 200px; text-align: center;" xmlns="http://www.w3.org/1999/xhtml"><span class="nodeLabel"><p>LOAD_PICKUP</p></span></div></foreignObject></g></g><g transform="translate(482.1328125, 72.5)" id="flowchart-S-17" class="node default"><rect height="54" width="139.171875" y="-27" x="-69.5859375" style="" class="basic label-container"/><g transform="translate(-39.5859375, -12)" style="" class="label"><rect/><foreignObject height="24" width="79.171875"><div style="display: table-cell; white-space: nowrap; line-height: 1.5; max-width: 200px; text-align: center;" xmlns="http://www.w3.org/1999/xhtml"><span class="nodeLabel"><p>LOAD_SHED</p></span></div></foreignObject></g></g><g transform="translate(671.3046875, 72.5)" id="flowchart-I-18" class="node default"><rect height="54" width="139.171875" y="-27" x="-69.5859375" style="" class="basic label-container"/><g transform="translate(-39.5859375, -12)" style="" class="label"><rect/><foreignObject height="24" width="79.171875"><div style="display: table-cell; white-space: nowrap; line-height: 1.5; max-width: 200px; text-align: center;" xmlns="http://www.w3.org/1999/xhtml"><span class="nodeLabel"><p>ISLANDING</p></span></div></foreignObject></g></g><g transform="translate(860.4765625, 72.5)" id="flowchart-E-19" class="node default"><rect height="54" width="139.171875" y="-27" x="-69.5859375" style="" class="basic label-container"/><g transform="translate(-39.5859375, -12)" style="" class="label"><rect/><foreignObject height="24" width="79.171875"><div style="display: table-cell; white-space: nowrap; line-height: 1.5; max-width: 200px; text-align: center;" xmlns="http://www.w3.org/1999/xhtml"><span class="nodeLabel"><p>EMERGENCY</p></span></div></foreignObject></g></g></g></g><a transform="translate(2899.73046875, 631)" xlink:href="?diagram=10-rings"><g title="Ring topology" id="flowchart-D1-0" class="node default clickable"><rect height="78" width="156.765625" y="-39" x="-78.3828125" style="" class="basic label-container"/><g transform="translate(-48.3828125, -24)" style="" class="label"><rect/><foreignObject height="48" width="96.765625"><div style="display: table-cell; white-space: nowrap; line-height: 1.5; max-width: 200px; text-align: center;" xmlns="http://www.w3.org/1999/xhtml"><span class="nodeLabel"><p>FieldDevice<br />Sensor ring</p></span></div></foreignObject></g></g></a><g transform="translate(2692.96484375, 631)" id="flowchart-D2-1" class="node default"><rect height="78" width="156.765625" y="-39" x="-78.3828125" style="" class="basic label-container"/><g transform="translate(-48.3828125, -24)" style="" class="label"><rect/><foreignObject height="48" width="96.765625"><div style="display: table-cell; white-space: nowrap; line-height: 1.5; max-width: 200px; text-align: center;" xmlns="http://www.w3.org/1999/xhtml"><span class="nodeLabel"><p>FieldDevice<br />Actuator</p></span></div></foreignObject></g></g><g transform="translate(2464.20703125, 631)" id="flowchart-D3-2" class="node default"><rect height="78" width="200.75" y="-39" x="-100.375" style="" class="basic label-container"/><g transform="translate(-70.375, -24)" style="" class="label"><rect/><foreignObject height="48" width="140.75"><div style="display: table-cell; white-space: nowrap; line-height: 1.5; max-width: 200px; text-align: center;" xmlns="http://www.w3.org/1999/xhtml"><span class="nodeLabel"><p>FieldDevice<br />Watch / T-Wrecks</p></span></div></foreignObject></g></g><a transform="translate(741.265625, 784)" xlink:href="?diagram=06-tags"><g title="Tag UDT data model" id="flowchart-ING-3" class="node default clickable master"><rect height="78" width="244.734375" y="-39" x="-122.3671875" style="fill:#1e3a5f !important;stroke:#58a6ff !important" class="basic label-container"/><g transform="translate(-92.3671875, -24)" style="color:#c9d1d9 !important" class="label"><rect/><foreignObject height="48" width="184.734375"><div xmlns="http://www.w3.org/1999/xhtml" style="color: rgb(201, 209, 217) !important; display: table-cell; white-space: nowrap; line-height: 1.5; max-width: 200px; text-align: center;"><span class="nodeLabel" style="color:#c9d1d9 !important"><p>Telemetry Ingress<br />tag_fold + value_fold</p></span></div></foreignObject></g></g></a><g transform="translate(1903.49609375, 478)" id="flowchart-DISP-4" class="node default master"><rect height="78" width="200.75" y="-39" x="-100.375" style="fill:#1e3a5f !important;stroke:#58a6ff !important" class="basic label-container"/><g transform="translate(-70.375, -24)" style="color:#c9d1d9 !important" class="label"><rect/><foreignObject height="48" width="140.75"><div xmlns="http://www.w3.org/1999/xhtml" style="color: rgb(201, 209, 217) !important; display: table-cell; white-space: nowrap; line-height: 1.5; max-width: 200px; text-align: center;"><span class="nodeLabel" style="color:#c9d1d9 !important"><p>Command Dispatch<br />capability check</p></span></div></foreignObject></g></g><a transform="translate(558.41015625, 924)" xlink:href="?diagram=08-fsm"><g title="Alarm + lifecycle FSM" id="flowchart-ALM-5" class="node default clickable alarm"><rect height="102" width="260" y="-51" x="-130" style="fill:#5f1e1e !important;stroke:#ff7b72 !important" class="basic label-container"/><g transform="translate(-100, -36)" style="color:#ffd1cf !important" class="label"><rect/><foreignObject height="72" width="200"><div xmlns="http://www.w3.org/1999/xhtml" style="color: rgb(255, 209, 207) !important; display: table; white-space: break-spaces; line-height: 1.5; max-width: 200px; text-align: center; width: 200px;"><span class="nodeLabel" style="color:#ffd1cf !important"><p>Alarm Engine<br />BLM-18 Mersenne shields</p></span></div></foreignObject></g></g></a><g transform="translate(147.7734375, 924)" id="flowchart-SKPI-6" class="node default master"><rect height="54" width="191.953125" y="-27" x="-95.9765625" style="fill:#1e3a5f !important;stroke:#58a6ff !important" class="basic label-container"/><g transform="translate(-65.9765625, -12)" style="color:#c9d1d9 !important" class="label"><rect/><foreignObject height="24" width="131.953125"><div xmlns="http://www.w3.org/1999/xhtml" style="color: rgb(201, 209, 217) !important; display: table-cell; white-space: nowrap; line-height: 1.5; max-width: 200px; text-align: center;"><span class="nodeLabel" style="color:#c9d1d9 !important"><p>15 SKPI Metrics</p></span></div></foreignObject></g></g><g transform="translate(2387.81640625, 72)" id="flowchart-OP1-7" class="node default ops"><rect height="78" width="147.96875" y="-39" x="-73.984375" style="fill:#3a1e5f !important;stroke:#bb86fc !important" class="basic label-container"/><g transform="translate(-43.984375, -24)" style="color:#e9d8fd !important" class="label"><rect/><foreignObject height="48" width="87.96875"><div xmlns="http://www.w3.org/1999/xhtml" style="color: rgb(233, 216, 253) !important; display: table-cell; white-space: nowrap; line-height: 1.5; max-width: 200px; text-align: center;"><span class="nodeLabel" style="color:#e9d8fd !important"><p>Operator A<br />kappa 0.92</p></span></div></foreignObject></g></g><g transform="translate(2189.84765625, 72)" id="flowchart-OP2-8" class="node default ops"><rect height="78" width="147.96875" y="-39" x="-73.984375" style="fill:#3a1e5f !important;stroke:#bb86fc !important" class="basic label-container"/><g transform="translate(-43.984375, -24)" style="color:#e9d8fd !important" class="label"><rect/><foreignObject height="48" width="87.96875"><div xmlns="http://www.w3.org/1999/xhtml" style="color: rgb(233, 216, 253) !important; display: table-cell; white-space: nowrap; line-height: 1.5; max-width: 200px; text-align: center;"><span class="nodeLabel" style="color:#e9d8fd !important"><p>Operator B<br />kappa 0.61</p></span></div></foreignObject></g></g><g transform="translate(2288.83203125, 250.5)" id="flowchart-ROLE-9" class="node default ops"><rect height="54" width="200.75" y="-27" x="-100.375" style="fill:#3a1e5f !important;stroke:#bb86fc !important" class="basic label-container"/><g transform="translate(-70.375, -12)" style="color:#e9d8fd !important" class="label"><rect/><foreignObject height="24" width="140.75"><div xmlns="http://www.w3.org/1999/xhtml" style="color: rgb(233, 216, 253) !important; display: table-cell; white-space: nowrap; line-height: 1.5; max-width: 200px; text-align: center;"><span class="nodeLabel" style="color:#e9d8fd !important"><p>Capability roles</p></span></div></foreignObject></g></g><g transform="translate(586.09765625, 72)" id="flowchart-M1-10" class="node default"><rect height="54" width="271.125" y="-27" x="-135.5625" style="" class="basic label-container"/><g transform="translate(-105.5625, -12)" style="" class="label"><rect/><foreignObject height="24" width="211.125"><div style="display: table; white-space: break-spaces; line-height: 1.5; max-width: 200px; text-align: center; width: 200px;" xmlns="http://www.w3.org/1999/xhtml"><span class="nodeLabel"><p>bloomscada.master_create</p></span></div></foreignObject></g></g><g transform="translate(876.43359375, 72)" id="flowchart-M2-11" class="node default"><rect height="54" width="209.546875" y="-27" x="-104.7734375" style="" class="basic label-container"/><g transform="translate(-74.7734375, -12)" style="" class="label"><rect/><foreignObject height="24" width="149.546875"><div style="display: table-cell; white-space: nowrap; line-height: 1.5; max-width: 200px; text-align: center;" xmlns="http://www.w3.org/1999/xhtml"><span class="nodeLabel"><p>bloomscada.ingest</p></span></div></foreignObject></g></g><g transform="translate(1903.49609375, 72)" id="flowchart-M3-12" class="node default"><rect height="54" width="218.34375" y="-27" x="-109.171875" style="" class="basic label-container"/><g transform="translate(-79.171875, -12)" style="" class="label"><rect/><foreignObject height="24" width="158.34375"><div style="display: table-cell; white-space: nowrap; line-height: 1.5; max-width: 200px; text-align: center;" xmlns="http://www.w3.org/1999/xhtml"><span class="nodeLabel"><p>bloomscada.command</p></span></div></foreignObject></g></g><g transform="translate(295.76171875, 72)" id="flowchart-M4-13" class="node default"><rect height="54" width="209.546875" y="-27" x="-104.7734375" style="" class="basic label-container"/><g transform="translate(-74.7734375, -12)" style="" class="label"><rect/><foreignObject height="24" width="149.546875"><div style="display: table-cell; white-space: nowrap; line-height: 1.5; max-width: 200px; text-align: center;" xmlns="http://www.w3.org/1999/xhtml"><span class="nodeLabel"><p>bloomscada.alarms</p></span></div></foreignObject></g></g><g transform="translate(1389.96484375, 72)" id="flowchart-M5-14" class="node default"><rect height="54" width="306.3125" y="-27" x="-153.15625" style="" class="basic label-container"/><g transform="translate(-123.15625, -12)" style="" class="label"><rect/><foreignObject height="24" width="246.3125"><div style="display: table; white-space: break-spaces; line-height: 1.5; max-width: 200px; text-align: center; width: 200px;" xmlns="http://www.w3.org/1999/xhtml"><span class="nodeLabel"><p>bloomscada.set_dispatch_mode</p></span></div></foreignObject></g></g><g transform="translate(156.5703125, 1102)" id="flowchart-SVG-20" class="node default"><rect height="54" width="227.140625" y="-27" x="-113.5703125" style="" class="basic label-container"/><g transform="translate(-83.5703125, -12)" style="" class="label"><rect/><foreignObject height="24" width="167.140625"><div style="display: table-cell; white-space: nowrap; line-height: 1.5; max-width: 200px; text-align: center;" xmlns="http://www.w3.org/1999/xhtml"><span class="nodeLabel"><p>scada-dashboard.svg</p></span></div></foreignObject></g></g><g transform="translate(156.5703125, 1206)" id="flowchart-WALL-21" class="node default"><rect height="54" width="183.15625" y="-27" x="-91.578125" style="" class="basic label-container"/><g transform="translate(-61.578125, -12)" style="" class="label"><rect/><foreignObject height="24" width="123.15625"><div style="display: table-cell; white-space: nowrap; line-height: 1.5; max-width: 200px; text-align: center;" xmlns="http://www.w3.org/1999/xhtml"><span class="nodeLabel"><p>ACG WallScreen</p></span></div></foreignObject></g></g><a transform="translate(568.41015625, 1102)" xlink:href="?diagram=09-gitplc"><g title="GitHub Issues as PLC config" id="flowchart-GH-22" class="node default clickable"><rect height="54" width="174.359375" y="-27" x="-87.1796875" style="" class="basic label-container"/><g transform="translate(-57.1796875, -12)" style="" class="label"><rect/><foreignObject height="24" width="114.359375"><div style="display: table-cell; white-space: nowrap; line-height: 1.5; max-width: 200px; text-align: center;" xmlns="http://www.w3.org/1999/xhtml"><span class="nodeLabel"><p>GITPLC Issues</p></span></div></foreignObject></g></g></a></g></g></g><text class="flowchartTitleText" y="-25" x="1510.556640625" text-anchor="middle">BloomSCADA — master / device / operator topology</text></svg>