<svg aria-roledescription="flowchart-v2" role="graphics-document document" viewBox="0 -50 2028.015625 1158" style="max-width: 2028.02px; background-color: transparent;" class="flowchart" xmlns:xlink="http://www.w3.org/1999/xlink" xmlns="http://www.w3.org/2000/svg" width="100%" id="my-svg"><style>#my-svg{font-family:ui-monospace,Menlo,Consolas,monospace;font-size:16px;fill:#ccc;}@keyframes edge-animation-frame{from{stroke-dashoffset:0;}}@keyframes dash{to{stroke-dashoffset:0;}}#my-svg .edge-animation-slow{stroke-dasharray:9,5!important;stroke-dashoffset:900;animation:dash 50s linear infinite;stroke-linecap:round;}#my-svg .edge-animation-fast{stroke-dasharray:9,5!important;stroke-dashoffset:900;animation:dash 20s linear infinite;stroke-linecap:round;}#my-svg .error-icon{fill:#a44141;}#my-svg .error-text{fill:#ddd;stroke:#ddd;}#my-svg .edge-thickness-normal{stroke-width:1px;}#my-svg .edge-thickness-thick{stroke-width:3.5px;}#my-svg .edge-pattern-solid{stroke-dasharray:0;}#my-svg .edge-thickness-invisible{stroke-width:0;fill:none;}#my-svg .edge-pattern-dashed{stroke-dasharray:3;}#my-svg .edge-pattern-dotted{stroke-dasharray:2;}#my-svg .marker{fill:#8b949e;stroke:#8b949e;}#my-svg .marker.cross{stroke:#8b949e;}#my-svg svg{font-family:ui-monospace,Menlo,Consolas,monospace;font-size:16px;}#my-svg p{margin:0;}#my-svg .label{font-family:ui-monospace,Menlo,Consolas,monospace;color:#ccc;}#my-svg .cluster-label text{fill:#F9FFFE;}#my-svg .cluster-label span{color:#F9FFFE;}#my-svg .cluster-label span p{background-color:transparent;}#my-svg .label text,#my-svg span{fill:#ccc;color:#ccc;}#my-svg .node rect,#my-svg .node circle,#my-svg .node ellipse,#my-svg .node polygon,#my-svg .node path{fill:#1f2020;stroke:#ccc;stroke-width:1px;}#my-svg .rough-node .label text,#my-svg .node .label text,#my-svg .image-shape .label,#my-svg .icon-shape .label{text-anchor:middle;}#my-svg .node .katex path{fill:#000;stroke:#000;stroke-width:1px;}#my-svg .rough-node .label,#my-svg .node .label,#my-svg .image-shape .label,#my-svg .icon-shape .label{text-align:center;}#my-svg .node.clickable{cursor:pointer;}#my-svg .root .anchor path{fill:#8b949e!important;stroke-width:0;stroke:#8b949e;}#my-svg .arrowheadPath{fill:lightgrey;}#my-svg .edgePath .path{stroke:#8b949e;stroke-width:2.0px;}#my-svg .flowchart-link{stroke:#8b949e;fill:none;}#my-svg .edgeLabel{background-color:hsl(0, 0%, 34.4117647059%);text-align:center;}#my-svg .edgeLabel p{background-color:hsl(0, 0%, 34.4117647059%);}#my-svg .edgeLabel rect{opacity:0.5;background-color:hsl(0, 0%, 34.4117647059%);fill:hsl(0, 0%, 34.4117647059%);}#my-svg .labelBkg{background-color:rgba(87.75, 87.75, 87.75, 0.5);}#my-svg .cluster rect{fill:hsl(180, 1.5873015873%, 28.3529411765%);stroke:rgba(255, 255, 255, 0.25);stroke-width:1px;}#my-svg .cluster text{fill:#F9FFFE;}#my-svg .cluster span{color:#F9FFFE;}#my-svg div.mermaidTooltip{position:absolute;text-align:center;max-width:200px;padding:2px;font-family:ui-monospace,Menlo,Consolas,monospace;font-size:12px;background:#161b22;border:1px solid rgba(255, 255, 255, 0.25);border-radius:2px;pointer-events:none;z-index:100;}#my-svg .flowchartTitleText{text-anchor:middle;font-size:18px;fill:#ccc;}#my-svg rect.text{fill:none;stroke-width:0;}#my-svg .icon-shape,#my-svg .image-shape{background-color:hsl(0, 0%, 34.4117647059%);text-align:center;}#my-svg .icon-shape p,#my-svg .image-shape p{background-color:hsl(0, 0%, 34.4117647059%);padding:2px;}#my-svg .icon-shape rect,#my-svg .image-shape rect{opacity:0.5;background-color:hsl(0, 0%, 34.4117647059%);fill:hsl(0, 0%, 34.4117647059%);}#my-svg .label-icon{display:inline-block;height:1em;overflow:visible;vertical-align:-0.125em;}#my-svg .node .label-icon path{fill:currentColor;stroke:revert;stroke-width:revert;}#my-svg :root{--mermaid-font-family:"trebuchet ms",verdana,arial,sans-serif;}#my-svg .ring&gt;*{fill:#1e3a5f!important;stroke:#58a6ff!important;color:#c9d1d9!important;}#my-svg .ring span{fill:#1e3a5f!important;stroke:#58a6ff!important;color:#c9d1d9!important;}#my-svg .ring tspan{fill:#c9d1d9!important;}#my-svg .bus&gt;*{fill:#3a3a1e!important;stroke:#e3b341!important;color:#fff8c5!important;}#my-svg .bus span{fill:#3a3a1e!important;stroke:#e3b341!important;color:#fff8c5!important;}#my-svg .bus tspan{fill:#fff8c5!important;}#my-svg .bio&gt;*{fill:#1e5f3a!important;stroke:#3fb950!important;color:#aff5b4!important;}#my-svg .bio span{fill:#1e5f3a!important;stroke:#3fb950!important;color:#aff5b4!important;}#my-svg .bio tspan{fill:#aff5b4!important;}</style><g><marker orient="auto" markerHeight="8" markerWidth="8" markerUnits="userSpaceOnUse" refY="5" refX="5" viewBox="0 0 10 10" class="marker flowchart-v2" id="my-svg_flowchart-v2-pointEnd"><path style="stroke-width: 1; stroke-dasharray: 1, 0;" class="arrowMarkerPath" d="M 0 0 L 10 5 L 0 10 z"/></marker><marker orient="auto" markerHeight="8" markerWidth="8" markerUnits="userSpaceOnUse" refY="5" refX="4.5" viewBox="0 0 10 10" class="marker flowchart-v2" id="my-svg_flowchart-v2-pointStart"><path style="stroke-width: 1; stroke-dasharray: 1, 0;" class="arrowMarkerPath" d="M 0 5 L 10 10 L 10 0 z"/></marker><marker orient="auto" markerHeight="11" markerWidth="11" markerUnits="userSpaceOnUse" refY="5" refX="11" viewBox="0 0 10 10" class="marker flowchart-v2" id="my-svg_flowchart-v2-circleEnd"><circle style="stroke-width: 1; stroke-dasharray: 1, 0;" class="arrowMarkerPath" r="5" cy="5" cx="5"/></marker><marker orient="auto" markerHeight="11" markerWidth="11" markerUnits="userSpaceOnUse" refY="5" refX="-1" viewBox="0 0 10 10" class="marker flowchart-v2" id="my-svg_flowchart-v2-circleStart"><circle style="stroke-width: 1; stroke-dasharray: 1, 0;" class="arrowMarkerPath" r="5" cy="5" cx="5"/></marker><marker orient="auto" markerHeight="11" markerWidth="11" markerUnits="userSpaceOnUse" refY="5.2" refX="12" viewBox="0 0 11 11" class="marker cross flowchart-v2" id="my-svg_flowchart-v2-crossEnd"><path style="stroke-width: 2; stroke-dasharray: 1, 0;" class="arrowMarkerPath" d="M 1,1 l 9,9 M 10,1 l -9,9"/></marker><marker orient="auto" markerHeight="11" markerWidth="11" markerUnits="userSpaceOnUse" refY="5.2" refX="-1" viewBox="0 0 11 11" class="marker cross flowchart-v2" id="my-svg_flowchart-v2-crossStart"><path style="stroke-width: 2; stroke-dasharray: 1, 0;" class="arrowMarkerPath" d="M 1,1 l 9,9 M 10,1 l -9,9"/></marker><g class="root"><g class="clusters"><g data-look="classic" id="Buses" class="cluster"><rect height="660" width="241.953125" y="8" x="230.96875" style=""/><g transform="translate(290.3671875, 8)" class="cluster-label"><foreignObject height="24" width="123.15625"><div style="display: table-cell; white-space: nowrap; line-height: 1.5; max-width: 200px; text-align: center;" xmlns="http://www.w3.org/1999/xhtml"><span class="nodeLabel"><p>Bus layer A..E</p></span></div></foreignObject></g></g><g data-look="classic" id="Rings" class="cluster"><rect height="412" width="2012.015625" y="688" x="8" style=""/><g transform="translate(914.0078125, 688)" class="cluster-label"><foreignObject height="48" width="200"><div style="display: table; white-space: break-spaces; line-height: 1.5; max-width: 200px; text-align: center; width: 200px;" xmlns="http://www.w3.org/1999/xhtml"><span class="nodeLabel"><p>Kernel Rings · Frobenius prime spine</p></span></div></foreignObject></g></g></g><g class="edgePaths"><path marker-end="url(#my-svg_flowchart-v2-pointEnd)" style="" class="edge-thickness-normal edge-pattern-solid edge-thickness-normal edge-pattern-solid flowchart-link" id="L_R0_R1_0" d="M425.93,898L433.762,898C441.594,898,457.258,898,476.587,898C495.917,898,518.911,898,541.289,902.459C563.667,906.918,585.428,915.836,596.309,920.296L607.189,924.755"/><path marker-end="url(#my-svg_flowchart-v2-pointEnd)" style="" class="edge-thickness-normal edge-pattern-solid edge-thickness-normal edge-pattern-solid flowchart-link" id="L_R1_R2_0" d="M785.25,962L789.417,962C793.583,962,801.917,962,809.583,962C817.25,962,824.25,962,827.75,962L831.25,962"/><path marker-end="url(#my-svg_flowchart-v2-pointEnd)" style="" class="edge-thickness-normal edge-pattern-solid edge-thickness-normal edge-pattern-solid flowchart-link" id="L_R2_R3_0" d="M990.789,1001L998.093,1005.167C1005.396,1009.333,1020.003,1017.667,1030.806,1021.833C1041.609,1026,1048.609,1026,1052.109,1026L1055.609,1026"/><path marker-end="url(#my-svg_flowchart-v2-pointEnd)" style="" class="edge-thickness-normal edge-pattern-solid edge-thickness-normal edge-pattern-solid flowchart-link" id="L_R3_R4_0" d="M1242.766,1026L1246.932,1026C1251.099,1026,1259.432,1026,1279.195,1001.893C1298.957,977.786,1330.148,929.572,1345.743,905.465L1361.339,881.358"/><path marker-end="url(#my-svg_flowchart-v2-pointEnd)" style="" class="edge-thickness-normal edge-pattern-solid edge-thickness-normal edge-pattern-solid flowchart-link" id="L_R4_R5_0" d="M1484.719,839L1488.885,839C1493.052,839,1501.385,839,1509.078,837.995C1516.77,836.99,1523.821,834.979,1527.346,833.974L1530.872,832.969"/><path marker-end="url(#my-svg_flowchart-v2-pointEnd)" style="" class="edge-thickness-normal edge-pattern-solid edge-thickness-normal edge-pattern-solid flowchart-link" id="L_R5_R6_0" d="M1744.266,802L1748.432,802C1752.599,802,1760.932,802,1768.617,801.158C1776.302,800.316,1783.339,798.633,1786.857,797.791L1790.375,796.949"/><path marker-end="url(#my-svg_flowchart-v2-pointEnd)" style="" class="edge-thickness-normal edge-pattern-dotted edge-thickness-normal edge-pattern-solid flowchart-link" id="L_R6_R2_0" d="M1862.682,811L1847.113,830C1831.543,849,1800.405,887,1763.206,906C1726.008,925,1682.75,925,1639.492,925C1596.234,925,1552.977,925,1511.185,925C1469.393,925,1429.068,925,1388.742,925C1348.417,925,1308.091,925,1268.499,925C1228.906,925,1190.047,925,1151.188,925C1112.328,925,1073.469,925,1050.506,926.165C1027.542,927.331,1020.475,929.662,1016.942,930.827L1013.408,931.993"/><path marker-end="url(#my-svg_flowchart-v2-pointEnd)" style="" class="edge-thickness-normal edge-pattern-dotted edge-thickness-normal edge-pattern-solid flowchart-link" id="L_RB_R1_0" d="M447.922,1026L452.089,1026C456.255,1026,464.589,1026,480.253,1026C495.917,1026,518.911,1026,541.289,1021.541C563.667,1017.082,585.428,1008.164,596.309,1003.704L607.189,999.245"/><path style="" class="edge-thickness-normal edge-pattern-solid edge-thickness-normal edge-pattern-solid flowchart-link" id="L_R7_BA_0" d="M171.324,942L177.098,945.5C182.872,949,194.421,956,204.361,959.5C214.302,963,222.635,963,244.834,908C267.032,853,303.096,743,321.127,688L339.159,633"/><path style="" class="edge-thickness-normal edge-pattern-solid edge-thickness-normal edge-pattern-solid flowchart-link" id="L_R7_BB_0" d="M180.969,932.897L185.135,934.581C189.302,936.265,197.635,939.632,205.969,941.316C214.302,943,222.635,943,245.316,870C267.997,797,305.026,651,323.54,578L342.054,505"/><path style="" class="edge-thickness-normal edge-pattern-solid edge-thickness-normal edge-pattern-solid flowchart-link" id="L_R7_BC_0" d="M180.969,917.949L185.135,918.791C189.302,919.632,197.635,921.316,205.969,922.158C214.302,923,222.635,923,245.621,832C268.606,741,306.243,559,325.062,468L343.88,377"/><path style="" class="edge-thickness-normal edge-pattern-solid edge-thickness-normal edge-pattern-solid flowchart-link" id="L_R7_BD_0" d="M180.969,897.768L185.135,897.473C189.302,897.179,197.635,896.589,205.969,896.295C214.302,896,222.635,896,245.819,788.167C269.002,680.333,307.035,464.667,326.051,356.833L345.068,249"/><path style="" class="edge-thickness-normal edge-pattern-solid edge-thickness-normal edge-pattern-solid flowchart-link" id="L_R7_BE_0" d="M180.969,882.819L185.135,881.683C189.302,880.546,197.635,878.273,205.969,877.137C214.302,876,222.635,876,245.974,750.167C269.314,624.333,307.658,372.667,326.831,246.833L346.003,121"/><path marker-end="url(#my-svg_flowchart-v2-pointEnd)" style="" class="edge-thickness-normal edge-pattern-solid edge-thickness-normal edge-pattern-solid flowchart-link" id="L_BA_R1_0" d="M417.133,594L426.431,594C435.729,594,454.326,594,475.121,637.5C495.917,681,518.911,768,546.4,822.457C573.888,876.913,605.869,898.826,621.86,909.783L637.851,920.739"/><path marker-end="url(#my-svg_flowchart-v2-pointEnd)" style="" class="edge-thickness-normal edge-pattern-solid edge-thickness-normal edge-pattern-solid flowchart-link" id="L_BB_R3_0" d="M417.133,466L426.431,466C435.729,466,454.326,466,475.121,524.667C495.917,583.333,518.911,700.667,556.436,759.333C593.961,818,646.016,818,690.74,818C735.464,818,772.857,818,810.25,818C847.643,818,885.036,818,922.43,818C959.823,818,997.216,818,1031.373,845.585C1065.531,873.17,1096.452,928.34,1111.913,955.926L1127.373,983.511"/><path marker-end="url(#my-svg_flowchart-v2-pointEnd)" style="" class="edge-thickness-normal edge-pattern-solid edge-thickness-normal edge-pattern-solid flowchart-link" id="L_BC_R5_0" d="M417.133,338L426.431,338C435.729,338,454.326,338,475.121,409.167C495.917,480.333,518.911,622.667,556.436,693.833C593.961,765,646.016,765,690.74,765C735.464,765,772.857,765,810.25,765C847.643,765,885.036,765,922.43,765C959.823,765,997.216,765,1035.342,765C1073.469,765,1112.328,765,1151.188,765C1190.047,765,1228.906,765,1268.499,765C1308.091,765,1348.417,765,1388.742,765C1429.068,765,1469.393,765,1493.082,766.005C1516.77,767.01,1523.821,769.021,1527.346,770.026L1530.872,771.031"/><path marker-end="url(#my-svg_flowchart-v2-pointEnd)" style="" class="edge-thickness-normal edge-pattern-solid edge-thickness-normal edge-pattern-solid flowchart-link" id="L_BD_R4_0" d="M417.133,210L426.431,210C435.729,210,454.326,210,475.121,299.167C495.917,388.333,518.911,566.667,556.436,655.833C593.961,745,646.016,745,690.74,745C735.464,745,772.857,745,810.25,745C847.643,745,885.036,745,922.43,745C959.823,745,997.216,745,1035.342,745C1073.469,745,1112.328,745,1151.188,745C1190.047,745,1228.906,745,1259.607,753.758C1290.307,762.515,1312.849,780.03,1324.12,788.788L1335.391,797.546"/><path marker-end="url(#my-svg_flowchart-v2-pointEnd)" style="" class="edge-thickness-normal edge-pattern-solid edge-thickness-normal edge-pattern-solid flowchart-link" id="L_BE_R6_0" d="M417.133,82L426.431,82C435.729,82,454.326,82,475.121,186.333C495.917,290.667,518.911,499.333,556.436,603.667C593.961,708,646.016,708,690.74,708C735.464,708,772.857,708,810.25,708C847.643,708,885.036,708,922.43,708C959.823,708,997.216,708,1035.342,708C1073.469,708,1112.328,708,1151.188,708C1190.047,708,1228.906,708,1268.499,708C1308.091,708,1348.417,708,1388.742,708C1429.068,708,1469.393,708,1511.185,708C1552.977,708,1596.234,708,1639.492,708C1682.75,708,1726.008,708,1755.205,711.864C1784.403,715.727,1799.54,723.454,1807.109,727.318L1814.678,731.181"/></g><g class="edgeLabels"><g class="edgeLabel"><g transform="translate(0, 0)" class="label"><foreignObject height="0" width="0"><div style="display: table-cell; white-space: nowrap; line-height: 1.5; max-width: 200px; text-align: center;" class="labelBkg" xmlns="http://www.w3.org/1999/xhtml"><span class="edgeLabel"></span></div></foreignObject></g></g><g class="edgeLabel"><g transform="translate(0, 0)" class="label"><foreignObject height="0" width="0"><div style="display: table-cell; white-space: nowrap; line-height: 1.5; max-width: 200px; text-align: center;" class="labelBkg" xmlns="http://www.w3.org/1999/xhtml"><span class="edgeLabel"></span></div></foreignObject></g></g><g class="edgeLabel"><g transform="translate(0, 0)" class="label"><foreignObject height="0" width="0"><div style="display: table-cell; white-space: nowrap; line-height: 1.5; max-width: 200px; text-align: center;" class="labelBkg" xmlns="http://www.w3.org/1999/xhtml"><span class="edgeLabel"></span></div></foreignObject></g></g><g class="edgeLabel"><g transform="translate(0, 0)" class="label"><foreignObject height="0" width="0"><div style="display: table-cell; white-space: nowrap; line-height: 1.5; max-width: 200px; text-align: center;" class="labelBkg" xmlns="http://www.w3.org/1999/xhtml"><span class="edgeLabel"></span></div></foreignObject></g></g><g class="edgeLabel"><g transform="translate(0, 0)" class="label"><foreignObject height="0" width="0"><div style="display: table-cell; white-space: nowrap; line-height: 1.5; max-width: 200px; text-align: center;" class="labelBkg" xmlns="http://www.w3.org/1999/xhtml"><span class="edgeLabel"></span></div></foreignObject></g></g><g class="edgeLabel"><g transform="translate(0, 0)" class="label"><foreignObject height="0" width="0"><div style="display: table-cell; white-space: nowrap; line-height: 1.5; max-width: 200px; text-align: center;" class="labelBkg" xmlns="http://www.w3.org/1999/xhtml"><span class="edgeLabel"></span></div></foreignObject></g></g><g transform="translate(1388.7421875, 925)" class="edgeLabel"><g transform="translate(-17.59375, -12)" class="label"><foreignObject height="24" width="35.1875"><div style="display: table-cell; white-space: nowrap; line-height: 1.5; max-width: 200px; text-align: center;" class="labelBkg" xmlns="http://www.w3.org/1999/xhtml"><span class="edgeLabel"><p>meta</p></span></div></foreignObject></g></g><g transform="translate(541.90625, 1026)" class="edgeLabel"><g transform="translate(-43.984375, -12)" class="label"><foreignObject height="24" width="87.96875"><div style="display: table-cell; white-space: nowrap; line-height: 1.5; max-width: 200px; text-align: center;" class="labelBkg" xmlns="http://www.w3.org/1999/xhtml"><span class="edgeLabel"><p>biomarkers</p></span></div></foreignObject></g></g><g class="edgeLabel"><g transform="translate(0, 0)" class="label"><foreignObject height="0" width="0"><div style="display: table-cell; white-space: nowrap; line-height: 1.5; max-width: 200px; text-align: center;" class="labelBkg" xmlns="http://www.w3.org/1999/xhtml"><span class="edgeLabel"></span></div></foreignObject></g></g><g class="edgeLabel"><g transform="translate(0, 0)" class="label"><foreignObject height="0" width="0"><div style="display: table-cell; white-space: nowrap; line-height: 1.5; max-width: 200px; text-align: center;" class="labelBkg" xmlns="http://www.w3.org/1999/xhtml"><span class="edgeLabel"></span></div></foreignObject></g></g><g class="edgeLabel"><g transform="translate(0, 0)" class="label"><foreignObject height="0" width="0"><div style="display: table-cell; white-space: nowrap; line-height: 1.5; max-width: 200px; text-align: center;" class="labelBkg" xmlns="http://www.w3.org/1999/xhtml"><span class="edgeLabel"></span></div></foreignObject></g></g><g class="edgeLabel"><g transform="translate(0, 0)" class="label"><foreignObject height="0" width="0"><div style="display: table-cell; white-space: nowrap; line-height: 1.5; max-width: 200px; text-align: center;" class="labelBkg" xmlns="http://www.w3.org/1999/xhtml"><span class="edgeLabel"></span></div></foreignObject></g></g><g class="edgeLabel"><g transform="translate(0, 0)" class="label"><foreignObject height="0" width="0"><div style="display: table-cell; white-space: nowrap; line-height: 1.5; max-width: 200px; text-align: center;" class="labelBkg" xmlns="http://www.w3.org/1999/xhtml"><span class="edgeLabel"></span></div></foreignObject></g></g><g class="edgeLabel"><g transform="translate(0, 0)" class="label"><foreignObject height="0" width="0"><div style="display: table-cell; white-space: nowrap; line-height: 1.5; max-width: 200px; text-align: center;" class="labelBkg" xmlns="http://www.w3.org/1999/xhtml"><span class="edgeLabel"></span></div></foreignObject></g></g><g class="edgeLabel"><g transform="translate(0, 0)" class="label"><foreignObject height="0" width="0"><div style="display: table-cell; white-space: nowrap; line-height: 1.5; max-width: 200px; text-align: center;" class="labelBkg" xmlns="http://www.w3.org/1999/xhtml"><span class="edgeLabel"></span></div></foreignObject></g></g><g class="edgeLabel"><g transform="translate(0, 0)" class="label"><foreignObject height="0" width="0"><div style="display: table-cell; white-space: nowrap; line-height: 1.5; max-width: 200px; text-align: center;" class="labelBkg" xmlns="http://www.w3.org/1999/xhtml"><span class="edgeLabel"></span></div></foreignObject></g></g><g class="edgeLabel"><g transform="translate(0, 0)" class="label"><foreignObject height="0" width="0"><div style="display: table-cell; white-space: nowrap; line-height: 1.5; max-width: 200px; text-align: center;" class="labelBkg" xmlns="http://www.w3.org/1999/xhtml"><span class="edgeLabel"></span></div></foreignObject></g></g><g class="edgeLabel"><g transform="translate(0, 0)" class="label"><foreignObject height="0" width="0"><div style="display: table-cell; white-space: nowrap; line-height: 1.5; max-width: 200px; text-align: center;" class="labelBkg" xmlns="http://www.w3.org/1999/xhtml"><span class="edgeLabel"></span></div></foreignObject></g></g></g><g class="nodes"><g transform="translate(351.9453125, 898)" id="flowchart-R0-0" class="node default ring"><rect height="78" width="147.96875" y="-39" x="-73.984375" style="fill:#1e3a5f !important;stroke:#58a6ff !important" class="basic label-container"/><g transform="translate(-43.984375, -24)" style="color:#c9d1d9 !important" class="label"><rect/><foreignObject height="48" width="87.96875"><div xmlns="http://www.w3.org/1999/xhtml" style="color: rgb(201, 209, 217) !important; display: table-cell; white-space: nowrap; line-height: 1.5; max-width: 200px; text-align: center;"><span class="nodeLabel" style="color:#c9d1d9 !important"><p>R0 Ground<br />p=2 · 0 Hz</p></span></div></foreignObject></g></g><g transform="translate(698.0703125, 962)" id="flowchart-R1-1" class="node default ring"><rect height="78" width="174.359375" y="-39" x="-87.1796875" style="fill:#1e3a5f !important;stroke:#58a6ff !important" class="basic label-container"/><g transform="translate(-57.1796875, -24)" style="color:#c9d1d9 !important" class="label"><rect/><foreignObject height="48" width="114.359375"><div xmlns="http://www.w3.org/1999/xhtml" style="color: rgb(201, 209, 217) !important; display: table-cell; white-space: nowrap; line-height: 1.5; max-width: 200px; text-align: center;"><span class="nodeLabel" style="color:#c9d1d9 !important"><p>R1 Sensor<br />p=3 · 22.1 Hz</p></span></div></foreignObject></g></g><g transform="translate(922.4296875, 962)" id="flowchart-R2-2" class="node default ring"><rect height="78" width="174.359375" y="-39" x="-87.1796875" style="fill:#1e3a5f !important;stroke:#58a6ff !important" class="basic label-container"/><g transform="translate(-57.1796875, -24)" style="color:#c9d1d9 !important" class="label"><rect/><foreignObject height="48" width="114.359375"><div xmlns="http://www.w3.org/1999/xhtml" style="color: rgb(201, 209, 217) !important; display: table-cell; white-space: nowrap; line-height: 1.5; max-width: 200px; text-align: center;"><span class="nodeLabel" style="color:#c9d1d9 !important"><p>R2 Gate<br />p=5 · 40.7 Hz</p></span></div></foreignObject></g></g><g transform="translate(1151.1875, 1026)" id="flowchart-R3-3" class="node default ring"><rect height="78" width="183.15625" y="-39" x="-91.578125" style="fill:#1e3a5f !important;stroke:#58a6ff !important" class="basic label-container"/><g transform="translate(-61.578125, -24)" style="color:#c9d1d9 !important" class="label"><rect/><foreignObject height="48" width="123.15625"><div xmlns="http://www.w3.org/1999/xhtml" style="color: rgb(201, 209, 217) !important; display: table-cell; white-space: nowrap; line-height: 1.5; max-width: 200px; text-align: center;"><span class="nodeLabel" style="color:#c9d1d9 !important"><p>R3 Affect<br />p=11 · 87.5 Hz</p></span></div></foreignObject></g></g><g transform="translate(1388.7421875, 839)" id="flowchart-R4-4" class="node default ring"><rect height="78" width="191.953125" y="-39" x="-95.9765625" style="fill:#1e3a5f !important;stroke:#58a6ff !important" class="basic label-container"/><g transform="translate(-65.9765625, -24)" style="color:#c9d1d9 !important" class="label"><rect/><foreignObject height="48" width="131.953125"><div xmlns="http://www.w3.org/1999/xhtml" style="color: rgb(201, 209, 217) !important; display: table-cell; white-space: nowrap; line-height: 1.5; max-width: 200px; text-align: center;"><span class="nodeLabel" style="color:#c9d1d9 !important"><p>R4 Exec<br />p=31 · 285.7 Hz</p></span></div></foreignObject></g></g><g transform="translate(1639.4921875, 802)" id="flowchart-R5-5" class="node default ring"><rect height="78" width="209.546875" y="-39" x="-104.7734375" style="fill:#1e3a5f !important;stroke:#58a6ff !important" class="basic label-container"/><g transform="translate(-74.7734375, -24)" style="color:#c9d1d9 !important" class="label"><rect/><foreignObject height="48" width="149.546875"><div xmlns="http://www.w3.org/1999/xhtml" style="color: rgb(201, 209, 217) !important; display: table-cell; white-space: nowrap; line-height: 1.5; max-width: 200px; text-align: center;"><span class="nodeLabel" style="color:#c9d1d9 !important"><p>R5 Self<br />p=127 · 1351.5 Hz</p></span></div></foreignObject></g></g><g transform="translate(1894.640625, 772)" id="flowchart-R6-6" class="node default ring"><rect height="78" width="200.75" y="-39" x="-100.375" style="fill:#1e3a5f !important;stroke:#58a6ff !important" class="basic label-container"/><g transform="translate(-70.375, -24)" style="color:#c9d1d9 !important" class="label"><rect/><foreignObject height="48" width="140.75"><div xmlns="http://www.w3.org/1999/xhtml" style="color: rgb(201, 209, 217) !important; display: table-cell; white-space: nowrap; line-height: 1.5; max-width: 200px; text-align: center;"><span class="nodeLabel" style="color:#c9d1d9 !important"><p>R6 Observer<br />p=709 · 11206 Hz</p></span></div></foreignObject></g></g><g transform="translate(106.984375, 903)" id="flowchart-R7-7" class="node default ring"><rect height="78" width="147.96875" y="-39" x="-73.984375" style="fill:#1e3a5f !important;stroke:#58a6ff !important" class="basic label-container"/><g transform="translate(-43.984375, -24)" style="color:#c9d1d9 !important" class="label"><rect/><foreignObject height="48" width="87.96875"><div xmlns="http://www.w3.org/1999/xhtml" style="color: rgb(201, 209, 217) !important; display: table-cell; white-space: nowrap; line-height: 1.5; max-width: 200px; text-align: center;"><span class="nodeLabel" style="color:#c9d1d9 !important"><p>R7 Network<br />buses A..E</p></span></div></foreignObject></g></g><g transform="translate(351.9453125, 1026)" id="flowchart-RB-8" class="node default bio"><rect height="78" width="191.953125" y="-39" x="-95.9765625" style="fill:#1e5f3a !important;stroke:#3fb950 !important" class="basic label-container"/><g transform="translate(-65.9765625, -24)" style="color:#aff5b4 !important" class="label"><rect/><foreignObject height="48" width="131.953125"><div xmlns="http://www.w3.org/1999/xhtml" style="color: rgb(175, 245, 180) !important; display: table-cell; white-space: nowrap; line-height: 1.5; max-width: 200px; text-align: center;"><span class="nodeLabel" style="color:#aff5b4 !important"><p>R_BIO<br />p=17 · 0.067 Hz</p></span></div></foreignObject></g></g><g transform="translate(351.9453125, 594)" id="flowchart-BA-9" class="node default bus"><rect height="78" width="130.375" y="-39" x="-65.1875" style="fill:#3a3a1e !important;stroke:#e3b341 !important" class="basic label-container"/><g transform="translate(-35.1875, -24)" style="color:#fff8c5 !important" class="label"><rect/><foreignObject height="48" width="70.375"><div xmlns="http://www.w3.org/1999/xhtml" style="color: rgb(255, 248, 197) !important; display: table-cell; white-space: nowrap; line-height: 1.5; max-width: 200px; text-align: center;"><span class="nodeLabel" style="color:#fff8c5 !important"><p>A · ELEC<br />tensor</p></span></div></foreignObject></g></g><g transform="translate(351.9453125, 466)" id="flowchart-BB-10" class="node default bus"><rect height="78" width="130.375" y="-39" x="-65.1875" style="fill:#3a3a1e !important;stroke:#e3b341 !important" class="basic label-container"/><g transform="translate(-35.1875, -24)" style="color:#fff8c5 !important" class="label"><rect/><foreignObject height="48" width="70.375"><div xmlns="http://www.w3.org/1999/xhtml" style="color: rgb(255, 248, 197) !important; display: table-cell; white-space: nowrap; line-height: 1.5; max-width: 200px; text-align: center;"><span class="nodeLabel" style="color:#fff8c5 !important"><p>B · CHEM<br />gradient</p></span></div></foreignObject></g></g><g transform="translate(351.9453125, 338)" id="flowchart-BC-11" class="node default bus"><rect height="78" width="130.375" y="-39" x="-65.1875" style="fill:#3a3a1e !important;stroke:#e3b341 !important" class="basic label-container"/><g transform="translate(-35.1875, -24)" style="color:#fff8c5 !important" class="label"><rect/><foreignObject height="48" width="70.375"><div xmlns="http://www.w3.org/1999/xhtml" style="color: rgb(255, 248, 197) !important; display: table-cell; white-space: nowrap; line-height: 1.5; max-width: 200px; text-align: center;"><span class="nodeLabel" style="color:#fff8c5 !important"><p>C · PHOT<br />photonic</p></span></div></foreignObject></g></g><g transform="translate(351.9453125, 210)" id="flowchart-BD-12" class="node default bus"><rect height="78" width="130.375" y="-39" x="-65.1875" style="fill:#3a3a1e !important;stroke:#e3b341 !important" class="basic label-container"/><g transform="translate(-35.1875, -24)" style="color:#fff8c5 !important" class="label"><rect/><foreignObject height="48" width="70.375"><div xmlns="http://www.w3.org/1999/xhtml" style="color: rgb(255, 248, 197) !important; display: table-cell; white-space: nowrap; line-height: 1.5; max-width: 200px; text-align: center;"><span class="nodeLabel" style="color:#fff8c5 !important"><p>D · MECH<br />EM</p></span></div></foreignObject></g></g><g transform="translate(351.9453125, 82)" id="flowchart-BE-13" class="node default bus"><rect height="78" width="130.375" y="-39" x="-65.1875" style="fill:#3a3a1e !important;stroke:#e3b341 !important" class="basic label-container"/><g transform="translate(-35.1875, -24)" style="color:#fff8c5 !important" class="label"><rect/><foreignObject height="48" width="70.375"><div xmlns="http://www.w3.org/1999/xhtml" style="color: rgb(255, 248, 197) !important; display: table-cell; white-space: nowrap; line-height: 1.5; max-width: 200px; text-align: center;"><span class="nodeLabel" style="color:#fff8c5 !important"><p>E · PLAS<br />state</p></span></div></foreignObject></g></g></g></g></g><text class="flowchartTitleText" y="-25" x="1014.0078125" text-anchor="middle">Kernel rings (prime spine) + bus power distribution</text></svg>